<?xml version="1.0" encoding="UTF-8"?><svg id="Ebene_1" xmlns="http://www.w3.org/2000/svg" xmlns:xlink="http://www.w3.org/1999/xlink" viewBox="0 0 240 240"><defs><style>.cls-1,.cls-2,.cls-3{fill:none;}.cls-2{clip-path:url(#clippath-1);}.cls-4{fill:#fff;}.cls-5{fill:#282828;}.cls-3{clip-path:url(#clippath);}</style><clipPath id="clippath"><path class="cls-1" d="m117.61.02C53.06,1.29,1.01,53.51.01,118.12v3.75c1,65.41,54.34,118.12,119.99,118.12s120-53.73,120-120S187.56,1.3,122.39.02h-4.78Z"/></clipPath><clipPath id="clippath-1"><path class="cls-1" d="m0,120c0,66.27,53.73,120,120,120s120-53.73,120-120S186.27,0,120,0,0,53.73,0,120"/></clipPath></defs><g class="cls-3"><path class="cls-5" d="m240,120c0,66.27-53.73,120-120,120S0,186.27,0,120,53.73,0,120,0s120,53.73,120,120"/></g><g class="cls-2"><path class="cls-4" d="m66.46,105.04c5.65-1.95,9.69-6.46,9.69-13.14,0-1.68-.85-5.75-3.93-8.37-2.03-1.73-4.97-3.77-14.44-4.01-1.96-.05-7.91.17-7.91.17v.34c1.68,1.29,3.49,3.41,4.36,5.87.91-.03,2.27-.1,3.63-.03,3.81.2,5.46.91,7.18,2.26,1.72,1.35,2.65,3.68,2.64,5.79-.01,2.88-1.38,5.86-5.53,7.55-3.36,1.37-7.43,1.67-7.43,1.67v1.05s2.43,1.16,4.87,4.38c2.09,2.77,14.26,20.68,14.26,20.68h10.05s-16.24-22.63-17.43-24.21"/><path class="cls-4" d="m44.36,102.52c3.86-2.28,6.34-5.64,6.34-10.65,0-5.35-3.17-12.43-16.48-12.43-6.44,0-13.6.24-13.6.24v49.56h11.35c14.44,0,22.07-5.32,22.07-15.39,0-6-3.76-9.96-9.69-11.34m-10.06,19.82h-5.62v-36.51c.07,0,2.52-.03,4.05-.03,6.28,0,9.77,3.25,9.87,7.71.06,2.71-.74,5.31-3.5,7.22-2.26,1.56-5.4,2.03-5.4,2.03v1.17s4.35.65,6.57,1.68c4.12,1.92,5.34,4.91,5.37,8.77.05,6.1-5.85,7.96-11.32,7.96"/><rect class="cls-4" x="194.12" y="79.69" width="14.78" height="90.98"/><path class="cls-4" d="m165.57,173.51l12.6-5.68-41.02-90.98h-12.6l-41.02,90.98,12.6,5.68,10.66-23.65h48.1l10.66,23.65Zm-52.77-36.96l18.05-40.04,18.05,40.04h-36.1Z"/></g></svg>